<?xml version="1.0" encoding="UTF-8"?>
<svg width="2880px" height="1024px" viewBox="0 0 2880 1024" version="1.1" xmlns="http://www.w3.org/2000/svg" xmlns:xlink="http://www.w3.org/1999/xlink">
    <!-- Generator: Sketch 52.1 (67048) - http://www.bohemiancoding.com/sketch -->
    <title>Desktop HD</title>
    <desc>Created with Sketch.</desc>
    <g id="Desktop-HD" stroke="none" stroke-width="1" fill="none" fill-rule="evenodd">
        <g id="BG" fill="#B1CCED" fill-rule="nonzero">
            <rect id="Rectangle" x="0" y="0" width="2880" height="1024"></rect>
        </g>
        <g id="SKYLINE" transform="translate(0.000000, 616.000000)" fill-rule="nonzero">
            <rect id="Rectangle" fill="#96ACC6" x="0" y="197.142857" width="135.992453" height="172.653061"></rect>
            <rect id="Rectangle" fill="#96ACC6" x="238.293082" y="126.122449" width="74.1220126" height="243.673469"></rect>
            <rect id="Rectangle" fill="#96ACC6" x="412.877987" y="121.836735" width="74.1220126" height="243.673469"></rect>
            <rect id="Rectangle" fill="#ABBFD6" x="135.379874" y="56.3265306" width="88.2113208" height="313.469388"></rect>
            <rect id="Rectangle" fill="#ABBFD6" x="223.591195" y="157.346939" width="51.4566038" height="212.44898"></rect>
            <rect id="Rectangle" fill="#ABBFD6" x="312.415094" y="263.877551" width="36.754717" height="126.122449"></rect>
            <rect id="Rectangle" fill="#ABBFD6" x="349.169811" y="243.673469" width="74.1220126" height="126.122449"></rect>
            <rect id="Rectangle" fill="#ABBFD6" x="423.291824" y="263.877551" width="36.754717" height="126.122449"></rect>
            <g id="Group-17" transform="translate(135.379874, 0.000000)" fill="#ABBFD6">
                <polygon id="Rectangle" points="22.0528302 28.1632653 44.1056604 0 44.1056604 56.3265306 0 56.3265306"></polygon>
                <polygon id="Rectangle" transform="translate(66.158491, 28.163265) scale(-1, 1) translate(-66.158491, -28.163265) " points="66.1584906 28.1632653 88.2113208 0 88.2113208 56.3265306 44.1056604 56.3265306"></polygon>
            </g>
            <rect id="Rectangle" fill="#ABBFD6" x="98.6251572" y="243.673469" width="74.1220126" height="126.122449"></rect>
        </g>
        <g id="SKYLINE" transform="translate(790.000000, 650.000000)" fill-rule="nonzero">
            <rect id="Rectangle" fill="#96ACC6" x="0" y="194.143541" width="135.992453" height="170.258373"></rect>
            <rect id="Rectangle" fill="#96ACC6" x="238.293082" y="124.325359" width="74.1220126" height="240.076555"></rect>
            <rect id="Rectangle" fill="#96ACC6" x="412.877987" y="120.038278" width="74.1220126" height="240.076555"></rect>
            <rect id="Rectangle" fill="#ABBFD6" x="135.379874" y="55.7320574" width="88.2113208" height="308.669856"></rect>
            <rect id="Rectangle" fill="#ABBFD6" x="223.591195" y="154.947368" width="51.4566038" height="209.454545"></rect>
            <rect id="Rectangle" fill="#ABBFD6" x="312.415094" y="259.674641" width="36.754717" height="124.325359"></rect>
            <rect id="Rectangle" fill="#ABBFD6" x="349.169811" y="240.076555" width="74.1220126" height="124.325359"></rect>
            <rect id="Rectangle" fill="#ABBFD6" x="423.291824" y="259.674641" width="36.754717" height="124.325359"></rect>
            <g id="Group-17" transform="translate(135.379874, 0.000000)" fill="#ABBFD6">
                <polygon id="Rectangle" points="22.0528302 27.8660287 44.1056604 0 44.1056604 55.7320574 0 55.7320574"></polygon>
                <polygon id="Rectangle" transform="translate(66.158491, 27.866029) scale(-1, 1) translate(-66.158491, -27.866029) " points="66.1584906 27.8660287 88.2113208 0 88.2113208 55.7320574 44.1056604 55.7320574"></polygon>
            </g>
            <rect id="Rectangle" fill="#ABBFD6" x="98.6251572" y="240.076555" width="74.1220126" height="124.325359"></rect>
        </g>
        <g id="SKYLINE" transform="translate(352.000000, 673.000000)" fill-rule="nonzero">
            <rect id="Rectangle" fill="#96ACC6" x="132.944664" y="140.954128" width="136.007905" height="172.822018"></rect>
            <rect id="Rectangle" fill="#96ACC6" x="371.264822" y="69.8642202" width="74.1304348" height="243.911927"></rect>
            <rect id="Rectangle" fill="#96ACC6" x="545.869565" y="65.5743119" width="74.1304348" height="243.911927"></rect>
            <rect id="Rectangle" fill="#ABBFD6" x="268.339921" y="0" width="88.2213439" height="313.776147"></rect>
            <rect id="Rectangle" fill="#ABBFD6" x="356.561265" y="101.119266" width="51.4624506" height="212.656881"></rect>
            <rect id="Rectangle" fill="#ABBFD6" x="445.395257" y="207.754128" width="36.7588933" height="126.245872"></rect>
            <rect id="Rectangle" fill="#ABBFD6" x="482.15415" y="187.530275" width="74.1304348" height="126.245872"></rect>
            <rect id="Rectangle" fill="#ABBFD6" x="556.284585" y="207.754128" width="36.7588933" height="126.245872"></rect>
            <rect id="Rectangle" fill="#ABBFD6" x="231.581028" y="187.530275" width="74.1304348" height="126.245872"></rect>
            <rect id="Rectangle" fill="#96ACC6" x="287.944664" y="256.781651" width="74.1304348" height="56.9944954"></rect>
            <rect id="Rectangle" fill="#96ACC6" x="0" y="256.781651" width="40.4347826" height="56.9944954"></rect>
        </g>
        <g id="SKYLINE" transform="translate(1277.000000, 789.000000)" fill-rule="nonzero">
            <rect id="Rectangle" fill="#96ACC6" x="0" y="103.5125" width="135.992453" height="126.7875"></rect>
            <rect id="Rectangle" fill="#96ACC6" x="238.293082" y="51.45" width="74.1220126" height="178.85"></rect>
            <rect id="Rectangle" fill="#96ACC6" x="412.877987" y="48.3875" width="74.1220126" height="178.85"></rect>
            <rect id="Rectangle" fill="#ABBFD6" x="135.379874" y="0" width="88.2113208" height="230.3"></rect>
            <rect id="Rectangle" fill="#ABBFD6" x="223.591195" y="74.1125" width="51.4566038" height="156.1875"></rect>
            <rect id="Rectangle" fill="#ABBFD6" x="312.415094" y="152.5125" width="36.754717" height="92.4875"></rect>
            <rect id="Rectangle" fill="#ABBFD6" x="349.169811" y="137.8125" width="74.1220126" height="92.4875"></rect>
            <rect id="Rectangle" fill="#ABBFD6" x="423.291824" y="152.5125" width="36.754717" height="92.4875"></rect>
            <rect id="Rectangle" fill="#ABBFD6" x="98.6251572" y="137.8125" width="74.1220126" height="92.4875"></rect>
        </g>
        <g id="Group-17" transform="translate(583.000000, 692.000000)" fill="#96ACC6" fill-rule="nonzero">
            <polygon id="Rectangle" points="332.615142 23.5597015 351.280757 0 351.280757 47.119403 313.949527 47.119403"></polygon>
            <polygon id="Rectangle" points="18.6656151 99.4402985 37.3312303 75.880597 37.3312303 123 0 123"></polygon>
            <polygon id="Rectangle" points="350.66877 0.611940299 388 47.7313433 350.66877 47.7313433"></polygon>
        </g>
        <g id="Train" transform="translate(1168.000000, 869.000000)" fill-rule="nonzero">
            <rect id="Rectangle" stroke="#979797" fill="#4A4A4A" x="0.5" y="28.7708333" width="334" height="1.45833333"></rect>
            <g id="Museum-2" transform="translate(0.000000, 31.343750)">
                <g id="Museum">
                    <rect id="Rectangle" fill="#734C39" x="0" y="0" width="335" height="86.0372768"></rect>
                    <g id="Group-11" transform="translate(30.204918, 28.679092)" fill="#563C2F">
                        <g id="Group-3" transform="translate(101.598361, 0.000000)">
                            <rect id="Rectangle" x="0" y="17.9244327" width="64.2540984" height="39.4337519"></rect>
                            <ellipse id="Oval" cx="32.1270492" cy="17.2074554" rx="32.1270492" ry="17.2074554"></ellipse>
                        </g>
                        <g id="Group-3">
                            <rect id="Rectangle" x="0" y="17.9244327" width="64.2540984" height="39.4337519"></rect>
                            <ellipse id="Oval" cx="32.1270492" cy="17.2074554" rx="32.1270492" ry="17.2074554"></ellipse>
                        </g>
                        <g id="Group-3" transform="translate(203.196721, 0.000000)">
                            <rect id="Rectangle" x="0" y="17.9244327" width="64.2540984" height="39.4337519"></rect>
                            <ellipse id="Oval" cx="32.1270492" cy="17.2074554" rx="32.1270492" ry="17.2074554"></ellipse>
                        </g>
                    </g>
                </g>
            </g>
            <g id="train\" transform="translate(80.228519, 0.000000)">
                <g id="Group-12" transform="translate(0.000000, 1.092593)">
                    <rect id="Rectangle" fill="#630AB1" x="0" y="0" width="69.3291533" height="27.9259259" rx="9"></rect>
                    <path d="M8.9999999,-1.47600591e-07 L65.4651568,-3.68182966e-08 C67.5877468,-3.26538615e-08 69.3084459,1.72069911 69.3084459,3.84328906 C69.3084459,5.49324219 68.2553148,6.95909307 66.6916312,7.48562781 L11.8720892,25.9448563 C7.16141749,27.5310675 2.05678535,24.9981917 0.470574236,20.2875199 C0.158935674,19.3620271 -3.70647957e-08,18.3919835 -4.03167718e-08,17.4154307 L-1.15968777e-07,8.99999983 C-1.32521034e-07,4.02943709 4.02943711,-1.78676474e-07 8.99999985,-1.95228728e-07 Z" id="Rectangle" fill="#DAD160"></path>
                </g>
                <g id="Group-12" transform="translate(176.380256, 14.271991) scale(-1, -1) translate(-176.380256, -14.271991) translate(141.471664, 0.136574)">
                    <rect id="Rectangle" fill="#630AB1" x="0" y="0" width="69.3291533" height="27.9259259" rx="9"></rect>
                    <path d="M8.9999999,-1.47600591e-07 L65.4651568,-3.68183388e-08 C67.5877468,-3.26538962e-08 69.3084459,1.72069911 69.3084459,3.84328906 C69.3084459,5.49324219 68.2553148,6.95909307 66.6916312,7.48562781 L11.8720892,25.9448563 C7.16141749,27.5310675 2.05678535,24.9981917 0.470574236,20.2875199 C0.158935674,19.3620271 -3.70647992e-08,18.3919835 -4.03167754e-08,17.4154307 L-1.15968777e-07,8.99999983 C-1.32521034e-07,4.02943709 4.02943711,-1.78676474e-07 8.99999985,-1.95228728e-07 Z" id="Rectangle" fill="#DAD160"></path>
                </g>
                <rect id="Rectangle" fill="#630AB1" x="70.9798475" y="1.09259259" width="69.3291533" height="27.8611111" rx="9"></rect>
                <g id="Group-13" transform="translate(3.851620, 10.379630)" fill="#95AFCE" stroke="#726C6C">
                    <rect id="Rectangle" x="0.5" y="0.5" width="3.95208238" height="5.00925926" rx="1.97604119"></rect>
                    <rect id="Rectangle" x="7.65300788" y="0.5" width="3.95208238" height="5.00925926" rx="1.97604119"></rect>
                    <rect id="Rectangle" x="14.8060158" y="0.5" width="3.95208238" height="5.00925926" rx="1.97604119"></rect>
                    <rect id="Rectangle" x="21.9590237" y="0.5" width="3.95208238" height="5.00925926" rx="1.97604119"></rect>
                    <rect id="Rectangle" x="29.1120315" y="0.5" width="3.95208238" height="5.00925926" rx="1.97604119"></rect>
                    <rect id="Rectangle" x="36.2650394" y="0.5" width="3.95208238" height="5.00925926" rx="1.97604119"></rect>
                    <rect id="Rectangle" x="43.4180473" y="0.5" width="3.95208238" height="5.00925926" rx="1.97604119"></rect>
                    <rect id="Rectangle" x="50.5710552" y="0.5" width="3.95208238" height="5.00925926" rx="1.97604119"></rect>
                    <rect id="Rectangle" x="57.7240631" y="0.5" width="3.95208238" height="5.00925926" rx="1.97604119"></rect>
                </g>
                <g id="Group-13" transform="translate(74.281236, 10.379630)" fill="#95AFCE" stroke="#726C6C">
                    <rect id="Rectangle" x="0.5" y="0.5" width="3.95208238" height="5.00925926" rx="1.97604119"></rect>
                    <rect id="Rectangle" x="7.65300788" y="0.5" width="3.95208238" height="5.00925926" rx="1.97604119"></rect>
                    <rect id="Rectangle" x="14.8060158" y="0.5" width="3.95208238" height="5.00925926" rx="1.97604119"></rect>
                    <rect id="Rectangle" x="21.9590237" y="0.5" width="3.95208238" height="5.00925926" rx="1.97604119"></rect>
                    <rect id="Rectangle" x="29.1120315" y="0.5" width="3.95208238" height="5.00925926" rx="1.97604119"></rect>
                    <rect id="Rectangle" x="36.2650394" y="0.5" width="3.95208238" height="5.00925926" rx="1.97604119"></rect>
                    <rect id="Rectangle" x="43.4180473" y="0.5" width="3.95208238" height="5.00925926" rx="1.97604119"></rect>
                    <rect id="Rectangle" x="50.5710552" y="0.5" width="3.95208238" height="5.00925926" rx="1.97604119"></rect>
                    <rect id="Rectangle" x="57.7240631" y="0.5" width="3.95208238" height="5.00925926" rx="1.97604119"></rect>
                </g>
                <g id="Group-13" transform="translate(145.261083, 10.379630)" fill="#95AFCE" stroke="#726C6C">
                    <rect id="Rectangle" x="0.5" y="0.5" width="3.95208238" height="5.00925926" rx="1.97604119"></rect>
                    <rect id="Rectangle" x="7.65300788" y="0.5" width="3.95208238" height="5.00925926" rx="1.97604119"></rect>
                    <rect id="Rectangle" x="14.8060158" y="0.5" width="3.95208238" height="5.00925926" rx="1.97604119"></rect>
                    <rect id="Rectangle" x="21.9590237" y="0.5" width="3.95208238" height="5.00925926" rx="1.97604119"></rect>
                    <rect id="Rectangle" x="29.1120315" y="0.5" width="3.95208238" height="5.00925926" rx="1.97604119"></rect>
                    <rect id="Rectangle" x="36.2650394" y="0.5" width="3.95208238" height="5.00925926" rx="1.97604119"></rect>
                    <rect id="Rectangle" x="43.4180473" y="0.5" width="3.95208238" height="5.00925926" rx="1.97604119"></rect>
                    <rect id="Rectangle" x="50.5710552" y="0.5" width="3.95208238" height="5.00925926" rx="1.97604119"></rect>
                    <rect id="Rectangle" x="57.7240631" y="0.5" width="3.95208238" height="5.00925926" rx="1.97604119"></rect>
                </g>
            </g>
        </g>
        <g id="Town-Hall" transform="translate(628.000000, 705.000000)" fill-rule="nonzero">
            <rect id="Rectangle" fill="#A1674A" x="2.27373675e-13" y="168.122271" width="307" height="111.877729"></rect>
            <rect id="Rectangle" fill="#A1674A" x="113.749004" y="62.9694323" width="77.6673307" height="105.764192"></rect>
            <g id="Group-2" transform="translate(25.073705, 187.685590)" fill="#602C11">
                <g id="Group">
                    <rect id="Rectangle" x="0" y="0" width="10.0866663" height="30.1489502"></rect>
                    <rect id="Rectangle" x="0" y="43.2134952" width="10.0866663" height="30.1489502"></rect>
                </g>
                <g id="Group" transform="translate(33.790332, 0.000000)">
                    <rect id="Rectangle" x="0" y="0" width="10.0866663" height="30.1489502"></rect>
                    <rect id="Rectangle" x="0" y="43.2134952" width="10.0866663" height="30.1489502"></rect>
                </g>
                <g id="Group" transform="translate(67.580664, 0.000000)">
                    <rect id="Rectangle" x="0" y="0" width="10.0866663" height="30.1489502"></rect>
                    <rect id="Rectangle" x="0" y="43.2134952" width="10.0866663" height="30.1489502"></rect>
                </g>
            </g>
            <g id="Group-2" transform="translate(204.258964, 187.685590)" fill="#602C11">
                <g id="Group">
                    <rect id="Rectangle" x="0" y="0" width="10.0866663" height="30.1489502"></rect>
                    <rect id="Rectangle" x="0" y="43.2134952" width="10.0866663" height="30.1489502"></rect>
                </g>
                <g id="Group" transform="translate(33.790332, 0.000000)">
                    <rect id="Rectangle" x="0" y="0" width="10.0866663" height="30.1489502"></rect>
                    <rect id="Rectangle" x="0" y="43.2134952" width="10.0866663" height="30.1489502"></rect>
                </g>
                <g id="Group" transform="translate(67.580664, 0.000000)">
                    <rect id="Rectangle" x="0" y="0" width="10.0866663" height="30.1489502"></rect>
                    <rect id="Rectangle" x="0" y="43.2134952" width="10.0866663" height="30.1489502"></rect>
                </g>
            </g>
            <g id="Group-3" transform="translate(127.814741, 222.532751)" fill="#602C11">
                <rect id="Rectangle" x="0" y="18.1475523" width="51.3705179" height="39.3196966"></rect>
                <ellipse id="Oval" cx="25.685259" cy="17.1393549" rx="25.685259" ry="17.1393549"></ellipse>
            </g>
            <polygon id="Rectangle" fill="#602C11" points="127.814741 180.349345 149.219124 180.349345 149.219124 209.420675 127.814741 223.144105"></polygon>
            <polygon id="Rectangle" fill="#602C11" transform="translate(168.483068, 201.746725) scale(-1, 1) translate(-168.483068, -201.746725) " points="157.780876 180.349345 179.185259 180.349345 179.185259 209.420675 157.780876 223.144105"></polygon>
            <polygon id="Rectangle" fill="#602C11" points="127.814741 180.349345 149.219124 180.349345 149.219124 209.420675 127.814741 223.144105"></polygon>
            <polygon id="Rectangle" fill="#602C11" transform="translate(168.483068, 201.746725) scale(-1, 1) translate(-168.483068, -201.746725) " points="157.780876 180.349345 179.185259 180.349345 179.185259 209.420675 157.780876 223.144105"></polygon>
            <rect id="Rectangle" fill="#602C11" x="127.814741" y="112.489083" width="21.4043825" height="45.2401747"></rect>
            <rect id="Rectangle" fill="#602C11" x="157.780876" y="112.489083" width="21.4043825" height="45.2401747"></rect>
            <g id="Group-10" transform="translate(136.376494, 72.139738)">
                <g id="Group-9">
                    <g id="Group-8">
                        <ellipse id="Oval" stroke="#602C11" fill="#D8D8D8" cx="16.2061753" cy="16.2008734" rx="16.2061753" ry="16.2008734"></ellipse>
                        <g id="Group-5" transform="translate(16.234842, 16.172216) rotate(90.000000) translate(-16.234842, -16.172216) translate(4.615320, 4.556496)" fill="#602C11" stroke="#1B1919">
                            <g id="Group-4" transform="translate(11.466382, 11.539736) rotate(150.000000) translate(-11.466382, -11.539736) translate(10.854829, -1.298692)">
                                <rect id="Rectangle" x="0.5" y="0.5" width="1" height="3.05021834"></rect>
                                <rect id="Rectangle" x="0.5" y="21.7636463" width="1" height="3.05021834"></rect>
                            </g>
                            <g id="Group-4" transform="translate(11.438402, 11.644629) rotate(120.000000) translate(-11.438402, -11.644629) translate(10.826848, -1.193799)">
                                <rect id="Rectangle" x="0.5" y="0.5" width="1" height="3.05021834"></rect>
                                <rect id="Rectangle" x="0.5" y="21.7636463" width="1" height="3.05021834"></rect>
                            </g>
                        </g>
                        <rect id="Rectangle" fill="#602C11" x="15.6997323" y="5.56905022" width="1.01288596" height="11.1381004"></rect>
                        <rect id="Rectangle" fill="#602C11" x="16.2061753" y="9.11299127" width="1.01288596" height="7.59415939"></rect>
                    </g>
                    <g id="Group-5" transform="translate(4.557987, 4.556496)" fill="#602C11" stroke="#1B1919">
                        <g id="Group-4" transform="translate(11.466382, 11.539736) rotate(150.000000) translate(-11.466382, -11.539736) translate(10.854829, -1.298692)">
                            <rect id="Rectangle" x="0.5" y="0.5" width="1" height="3.05021834"></rect>
                            <rect id="Rectangle" x="0.5" y="21.7636463" width="1" height="3.05021834"></rect>
                        </g>
                        <g id="Group-4" transform="translate(11.438402, 11.644629) rotate(120.000000) translate(-11.438402, -11.644629) translate(10.826848, -1.193799)">
                            <rect id="Rectangle" x="0.5" y="0.5" width="1" height="3.05021834"></rect>
                            <rect id="Rectangle" x="0.5" y="21.7636463" width="1" height="3.05021834"></rect>
                        </g>
                    </g>
                </g>
                <rect id="Rectangle" stroke="#1B1919" fill="#602C11" x="16.1997323" y="4.04394105" width="1" height="3.05021834"></rect>
                <rect id="Rectangle" stroke="#1B1919" fill="#602C11" x="16.1997323" y="25.3075873" width="1" height="3.05021834"></rect>
                <g id="Group-4" transform="translate(16.024620, 16.305950) rotate(90.000000) translate(-16.024620, -16.305950) translate(15.413066, 3.467522)" fill="#602C11" stroke="#1B1919">
                    <rect id="Rectangle" x="0.5" y="0.5" width="1" height="3.05021834"></rect>
                    <rect id="Rectangle" x="0.5" y="21.7636463" width="1" height="3.05021834"></rect>
                </g>
            </g>
            <g id="Group-7" transform="translate(113.749004, 0.000000)" fill="#A1674A">
                <polygon id="Rectangle" points="17.3994994 48.3063487 34.7989988 33.2106147 34.7989988 63.4020826 0 63.4020826"></polygon>
                <polygon id="Rectangle" points="42.8683319 33.2106147 77.6673307 63.4020826 42.8683319 63.4020826"></polygon>
                <g id="Group-6" transform="translate(6.556333, 0.000000)">
                    <polygon id="Rectangle" points="31.7729989 65.4148472 31.7729989 0 64.5546645 65.4148472"></polygon>
                    <polygon id="Rectangle" points="32.7816655 65.4148472 0 65.4148472 32.7816655 0"></polygon>
                </g>
            </g>
        </g>
        <g id="Museum" transform="translate(40.000000, 842.000000)">
            <rect id="Rectangle" fill="#81533C" fill-rule="nonzero" x="0" y="0" width="345" height="143"></rect>
            <g id="Group-11" transform="translate(34.255319, 15.888889)" fill="#602C11" fill-rule="nonzero">
                <g id="Group-3" transform="translate(61.042979, 0.000000)">
                    <rect id="Rectangle" x="0" y="14.1319444" width="38.4344681" height="31.0902778"></rect>
                    <ellipse id="Oval" cx="19.217234" cy="13.5666667" rx="19.217234" ry="13.5666667"></ellipse>
                </g>
                <g id="Group-3">
                    <rect id="Rectangle" x="0" y="14.1319444" width="38.4344681" height="31.0902778"></rect>
                    <ellipse id="Oval" cx="19.217234" cy="13.5666667" rx="19.217234" ry="13.5666667"></ellipse>
                </g>
                <g id="Group-3" transform="translate(122.085957, 0.000000)">
                    <rect id="Rectangle" x="0" y="14.1319444" width="38.4344681" height="31.0902778"></rect>
                    <ellipse id="Oval" cx="19.217234" cy="13.5666667" rx="19.217234" ry="13.5666667"></ellipse>
                </g>
                <g id="Group-3" transform="translate(183.128936, 0.000000)">
                    <rect id="Rectangle" x="0" y="14.1319444" width="38.4344681" height="31.0902778"></rect>
                    <ellipse id="Oval" cx="19.217234" cy="13.5666667" rx="19.217234" ry="13.5666667"></ellipse>
                </g>
                <g id="Group-3" transform="translate(244.171915, 0.000000)">
                    <rect id="Rectangle" x="0" y="14.1319444" width="38.4344681" height="31.0902778"></rect>
                    <ellipse id="Oval" cx="19.217234" cy="13.5666667" rx="19.217234" ry="13.5666667"></ellipse>
                </g>
            </g>
            <rect id="Rectangle" fill="#302F30" fill-rule="nonzero" x="118.670213" y="92.2777778" width="113.776596" height="50.7222222"></rect>
            <rect id="Rectangle" fill="#464546" fill-rule="nonzero" x="114.388298" y="85.5555556" width="122.340426" height="11"></rect>
            <text id="MUSEUM-OF-SCIENCE-AN" font-family="Avenir-Heavy, Avenir" font-size="14" font-weight="600" letter-spacing="0.5" fill="#F7F7F7">
                <tspan x="89.9202128" y="82">MUSEUM OF SCIENCE </tspan>
                <tspan x="89.9202128" y="101">AND INDUSTR</tspan>
                <tspan x="191.586213" y="101" letter-spacing="-0.200000003">Y</tspan>
            </text>
        </g>
        <g id="Group-18" transform="translate(1031.000000, 830.000000)">
            <g id="Group-16" transform="translate(0.613260, 0.000000)">
                <g id="Group-15" fill-rule="nonzero">
                    <g id="Group-19">
                        <rect id="Rectangle" fill="#E1E2E4" x="0" y="0" width="110.38674" height="110.896057"></rect>
                        <rect id="Rectangle" stroke="#979797" fill="#D8D8D8" x="104.078748" y="110.902299" width="1" height="47.362069"></rect>
                    </g>
                    <rect id="Rectangle" fill="#ABC3E2" x="0" y="110.896057" width="78.2919172" height="59.1039427"></rect>
                </g>
                <rect id="Rectangle" fill="#FFFFFF" fill-rule="nonzero" x="9.72570399" y="11.6236151" width="26.745686" height="59.2097182"></rect>
                <text id="DEPT" transform="translate(23.098547, 41.552413) rotate(270.000000) translate(-23.098547, -41.552413) " font-family="Avenir-Black, Avenir" font-size="18" font-weight="700" letter-spacing="0.360000163" fill="#000000">
                    <tspan x="-1.45386619" y="47.0524132">DEPT</tspan>
                </text>
            </g>
            <rect id="Rectangle" fill="#828082" fill-rule="nonzero" transform="translate(40.168508, 133.176895) scale(1, -1) rotate(-180.000000) translate(-40.168508, -133.176895) " x="1.22651934" y="109.855596" width="77.8839779" height="46.6425993"></rect>
            <rect id="Rectangle" fill="#828082" fill-rule="nonzero" x="0" y="0" width="111" height="1.22743682"></rect>
            <rect id="Rectangle" fill="#828082" fill-rule="nonzero" x="0" y="155.884477" width="79.7237569" height="1.22743682"></rect>
            <polygon id="Rectangle" fill="#828082" fill-rule="nonzero" transform="translate(0.613260, 78.555233) rotate(90.000000) translate(-0.613260, -78.555233) " points="-77.3282553 77.9419738 78.5562212 77.9419738 78.5562212 79.1684931 -77.3282553 79.1684931"></polygon>
            <polygon id="Rectangle" fill="#828082" fill-rule="nonzero" transform="translate(110.386740, 55.848375) rotate(90.000000) translate(-110.386740, -55.848375) " points="55.1520833 55.2351158 165.621397 55.2351158 165.621397 56.4616351 55.1520833 56.4616351"></polygon>
            <rect id="Rectangle" fill="#828082" fill-rule="nonzero" transform="translate(95.055249, 110.469314) scale(1, -1) rotate(-180.000000) translate(-95.055249, -110.469314) " x="79.1104972" y="109.855596" width="31.8895028" height="1.22743682"></rect>
            <polygon id="Rectangle" fill="#828082" fill-rule="nonzero" transform="translate(79.110497, 133.790614) scale(1, -1) rotate(90.000000) translate(-79.110497, -133.790614) " points="55.7891976 133.177354 102.431797 133.177354 102.431797 134.403873 55.7891976 134.403873"></polygon>
        </g>
        <g id="Tower" transform="translate(433.000000, 615.000000)" fill="#D8D8D8" fill-rule="nonzero" stroke="#979797">
            <rect id="Rectangle" x="68.5" y="137.778418" width="67" height="233.721582"></rect>
            <rect id="Rectangle" x="0.5" y="0.5" width="135" height="220.85173"></rect>
        </g>
        <g id="SKYLINE" transform="translate(1607.000000, 587.000000)" fill-rule="nonzero">
            <rect id="Rectangle" fill="#96ACC6" x="0" y="197.142857" width="135.992453" height="172.653061"></rect>
            <rect id="Rectangle" fill="#96ACC6" x="238.293082" y="126.122449" width="74.1220126" height="243.673469"></rect>
            <rect id="Rectangle" fill="#96ACC6" x="412.877987" y="121.836735" width="74.1220126" height="243.673469"></rect>
            <rect id="Rectangle" fill="#ABBFD6" x="135.379874" y="56.3265306" width="88.2113208" height="313.469388"></rect>
            <rect id="Rectangle" fill="#ABBFD6" x="223.591195" y="157.346939" width="51.4566038" height="212.44898"></rect>
            <rect id="Rectangle" fill="#ABBFD6" x="312.415094" y="263.877551" width="36.754717" height="126.122449"></rect>
            <rect id="Rectangle" fill="#ABBFD6" x="349.169811" y="243.673469" width="74.1220126" height="126.122449"></rect>
            <rect id="Rectangle" fill="#ABBFD6" x="423.291824" y="263.877551" width="36.754717" height="126.122449"></rect>
            <g id="Group-17" transform="translate(135.379874, 0.000000)" fill="#ABBFD6">
                <polygon id="Rectangle" points="22.0528302 28.1632653 44.1056604 0 44.1056604 56.3265306 0 56.3265306"></polygon>
                <polygon id="Rectangle" transform="translate(66.158491, 28.163265) scale(-1, 1) translate(-66.158491, -28.163265) " points="66.1584906 28.1632653 88.2113208 0 88.2113208 56.3265306 44.1056604 56.3265306"></polygon>
            </g>
            <rect id="Rectangle" fill="#ABBFD6" x="98.6251572" y="243.673469" width="74.1220126" height="126.122449"></rect>
        </g>
        <g id="SKYLINE" transform="translate(2399.000000, 621.000000)" fill-rule="nonzero">
            <rect id="Rectangle" fill="#96ACC6" x="0" y="194.143541" width="135.992453" height="170.258373"></rect>
            <rect id="Rectangle" fill="#96ACC6" x="238.293082" y="124.325359" width="74.1220126" height="240.076555"></rect>
            <rect id="Rectangle" fill="#96ACC6" x="412.877987" y="120.038278" width="74.1220126" height="240.076555"></rect>
            <rect id="Rectangle" fill="#ABBFD6" x="135.379874" y="55.7320574" width="88.2113208" height="308.669856"></rect>
            <rect id="Rectangle" fill="#ABBFD6" x="223.591195" y="154.947368" width="51.4566038" height="209.454545"></rect>
            <rect id="Rectangle" fill="#ABBFD6" x="312.415094" y="259.674641" width="36.754717" height="124.325359"></rect>
            <rect id="Rectangle" fill="#ABBFD6" x="349.169811" y="240.076555" width="74.1220126" height="124.325359"></rect>
            <rect id="Rectangle" fill="#ABBFD6" x="423.291824" y="259.674641" width="36.754717" height="124.325359"></rect>
            <g id="Group-17" transform="translate(135.379874, 0.000000)" fill="#ABBFD6">
                <polygon id="Rectangle" points="22.0528302 27.8660287 44.1056604 0 44.1056604 55.7320574 0 55.7320574"></polygon>
                <polygon id="Rectangle" transform="translate(66.158491, 27.866029) scale(-1, 1) translate(-66.158491, -27.866029) " points="66.1584906 27.8660287 88.2113208 0 88.2113208 55.7320574 44.1056604 55.7320574"></polygon>
            </g>
            <rect id="Rectangle" fill="#ABBFD6" x="98.6251572" y="240.076555" width="74.1220126" height="124.325359"></rect>
        </g>
        <g id="SKYLINE" transform="translate(1957.000000, 644.000000)" fill-rule="nonzero">
            <rect id="Rectangle" fill="#96ACC6" x="132.944664" y="140.954128" width="136.007905" height="172.822018"></rect>
            <rect id="Rectangle" fill="#96ACC6" x="371.264822" y="69.8642202" width="74.1304348" height="243.911927"></rect>
            <rect id="Rectangle" fill="#96ACC6" x="545.869565" y="65.5743119" width="74.1304348" height="243.911927"></rect>
            <rect id="Rectangle" fill="#ABBFD6" x="268.339921" y="0" width="88.2213439" height="313.776147"></rect>
            <rect id="Rectangle" fill="#ABBFD6" x="356.561265" y="101.119266" width="51.4624506" height="212.656881"></rect>
            <rect id="Rectangle" fill="#ABBFD6" x="445.395257" y="207.754128" width="36.7588933" height="126.245872"></rect>
            <rect id="Rectangle" fill="#ABBFD6" x="482.15415" y="187.530275" width="74.1304348" height="126.245872"></rect>
            <rect id="Rectangle" fill="#ABBFD6" x="556.284585" y="207.754128" width="36.7588933" height="126.245872"></rect>
            <rect id="Rectangle" fill="#ABBFD6" x="231.581028" y="187.530275" width="74.1304348" height="126.245872"></rect>
            <rect id="Rectangle" fill="#96ACC6" x="287.944664" y="256.781651" width="74.1304348" height="56.9944954"></rect>
            <rect id="Rectangle" fill="#96ACC6" x="0" y="256.781651" width="40.4347826" height="56.9944954"></rect>
        </g>
        <rect id="Rectangle" stroke="#979797" fill="#D8D8D8" fill-rule="nonzero" x="0.5" y="986.5" width="2885" height="37"></rect>
        <rect id="Rectangle" fill="#767476" fill-rule="nonzero" x="0" y="948" width="2886" height="3"></rect>
    </g>
</svg>