<?xml version="1.0" encoding="UTF-8"?>
<svg width="2880px" height="1024px" viewBox="0 0 2880 1024" version="1.1" xmlns="http://www.w3.org/2000/svg" xmlns:xlink="http://www.w3.org/1999/xlink">
    <!-- Generator: Sketch 52.1 (67048) - http://www.bohemiancoding.com/sketch -->
    <title>Desktop HD</title>
    <desc>Created with Sketch.</desc>
    <g id="Desktop-HD" stroke="none" stroke-width="1" fill="none" fill-rule="evenodd">
        <g id="Clouds" transform="translate(435.000000, 98.000000)" fill-rule="nonzero">
            <g id="cloud" transform="translate(731.000000, 43.000000)" fill="#EAEAEA">
                <ellipse id="Oval" cx="37" cy="36" rx="37" ry="23"></ellipse>
                <ellipse id="Oval" cx="146" cy="36" rx="37" ry="23"></ellipse>
                <path d="M88.5,60 C112.524387,60 132,53.0398242 132,34.1688754 C132,15.2979266 112.524387,0 88.5,0 C64.4756134,0 45,15.2979266 45,34.1688754 C45,53.0398242 64.4756134,60 88.5,60 Z" id="Oval"></path>
            </g>
            <g id="cloud" transform="translate(860.000000, 43.000000)" fill="#FFFFFF">
                <ellipse id="Oval" cx="48.5" cy="72.5" rx="48.5" ry="46.5"></ellipse>
                <ellipse id="Oval" cx="192.5" cy="72.5" rx="48.5" ry="46.5"></ellipse>
                <path d="M117,120 C148.480231,120 174,106.079648 174,68.3377509 C174,30.5958532 148.480231,0 117,0 C85.5197693,0 60,30.5958532 60,68.3377509 C60,106.079648 85.5197693,120 117,120 Z" id="Oval"></path>
            </g>
            <g id="cloud" transform="translate(990.000000, 46.000000)" fill="#D8D8D8">
                <ellipse id="Oval" cx="48.5" cy="54.5" rx="48.5" ry="34.5"></ellipse>
                <ellipse id="Oval" cx="192.5" cy="54.5" rx="48.5" ry="34.5"></ellipse>
                <path d="M117,90 C148.480231,90 174,79.5597364 174,51.2533131 C174,22.9468899 148.480231,0 117,0 C85.5197693,0 60,22.9468899 60,51.2533131 C60,79.5597364 85.5197693,90 117,90 Z" id="Oval"></path>
            </g>
            <g id="cloud" transform="translate(1719.000000, 10.000000)" fill="#D8D8D8">
                <ellipse id="Oval" cx="20.5" cy="19.5" rx="20.5" ry="12.5"></ellipse>
                <ellipse id="Oval" cx="81.5" cy="19.5" rx="20.5" ry="12.5"></ellipse>
                <path d="M49,33 C62.254834,33 73,29.1719033 73,18.7928815 C73,8.41385964 62.254834,0 49,0 C35.745166,0 25,8.41385964 25,18.7928815 C25,29.1719033 35.745166,33 49,33 Z" id="Oval"></path>
            </g>
            <g id="cloud" transform="translate(860.000000, 43.000000)" fill="#FFFFFF">
                <ellipse id="Oval" cx="48.5" cy="72.5" rx="48.5" ry="46.5"></ellipse>
                <ellipse id="Oval" cx="192.5" cy="72.5" rx="48.5" ry="46.5"></ellipse>
                <path d="M117,120 C148.480231,120 174,106.079648 174,68.3377509 C174,30.5958532 148.480231,0 117,0 C85.5197693,0 60,30.5958532 60,68.3377509 C60,106.079648 85.5197693,120 117,120 Z" id="Oval"></path>
            </g>
            <g id="cloud" transform="translate(990.000000, 46.000000)" fill="#EAEAEA">
                <ellipse id="Oval" cx="48.5" cy="54.5" rx="48.5" ry="34.5"></ellipse>
                <ellipse id="Oval" cx="192.5" cy="54.5" rx="48.5" ry="34.5"></ellipse>
                <path d="M117,90 C148.480231,90 174,79.5597364 174,51.2533131 C174,22.9468899 148.480231,0 117,0 C85.5197693,0 60,22.9468899 60,51.2533131 C60,79.5597364 85.5197693,90 117,90 Z" id="Oval"></path>
            </g>
            <g id="cloud" transform="translate(2050.000000, 0.000000)" fill="#FFFFFF">
                <ellipse id="Oval" cx="62.5" cy="87.5" rx="62.5" ry="56.5"></ellipse>
                <ellipse id="Oval" cx="247.5" cy="87.5" rx="62.5" ry="56.5"></ellipse>
                <path d="M150.5,146 C191.092929,146 224,129.063572 224,83.1442635 C224,37.2249548 191.092929,0 150.5,0 C109.907071,0 77,37.2249548 77,83.1442635 C77,129.063572 109.907071,146 150.5,146 Z" id="Oval"></path>
            </g>
            <g id="cloud" transform="translate(0.000000, 235.000000)" fill="#FFFFFF">
                <ellipse id="Oval" cx="37" cy="51" rx="37" ry="33"></ellipse>
                <ellipse id="Oval" cx="146" cy="51" rx="37" ry="33"></ellipse>
                <path d="M88.5,85 C112.524387,85 132,75.139751 132,48.4059069 C132,21.6720627 112.524387,0 88.5,0 C64.4756134,0 45,21.6720627 45,48.4059069 C45,75.139751 64.4756134,85 88.5,85 Z" id="Oval"></path>
            </g>
            <g id="cloud" transform="translate(448.000000, 318.000000)" fill="#FFFFFF">
                <ellipse id="Oval" cx="26" cy="36.5" rx="26" ry="23.5"></ellipse>
                <ellipse id="Oval" cx="103" cy="36.5" rx="26" ry="23.5"></ellipse>
                <path d="M62.5,60 C79.3446849,60 93,53.0398242 93,34.1688754 C93,15.2979266 79.3446849,0 62.5,0 C45.6553151,0 32,15.2979266 32,34.1688754 C32,53.0398242 45.6553151,60 62.5,60 Z" id="Oval"></path>
            </g>
            <g id="cloud" transform="translate(134.000000, 258.000000)" fill="#FFFFFF">
                <ellipse id="Oval" cx="48.5" cy="72.5" rx="48.5" ry="46.5"></ellipse>
                <ellipse id="Oval" cx="192.5" cy="72.5" rx="48.5" ry="46.5"></ellipse>
                <path d="M116.5,120 C148.256373,120 174,106.079648 174,68.3377509 C174,30.5958532 148.256373,0 116.5,0 C84.7436269,0 59,30.5958532 59,68.3377509 C59,106.079648 84.7436269,120 116.5,120 Z" id="Oval"></path>
            </g>
            <g id="cloud" transform="translate(1460.000000, 121.000000)" fill="#FFFFFF">
                <ellipse id="Oval" cx="37" cy="51" rx="37" ry="33"></ellipse>
                <ellipse id="Oval" cx="146" cy="51" rx="37" ry="33"></ellipse>
                <path d="M88.5,85 C112.524387,85 132,75.139751 132,48.4059069 C132,21.6720627 112.524387,0 88.5,0 C64.4756134,0 45,21.6720627 45,48.4059069 C45,75.139751 64.4756134,85 88.5,85 Z" id="Oval"></path>
            </g>
        </g>
    </g>
</svg>