<?xml version="1.0" encoding="UTF-8"?>
<svg width="2880px" height="1024px" viewBox="0 0 2880 1024" version="1.1" xmlns="http://www.w3.org/2000/svg" xmlns:xlink="http://www.w3.org/1999/xlink">
    <!-- Generator: Sketch 52.1 (67048) - http://www.bohemiancoding.com/sketch -->
    <title>Desktop HD</title>
    <desc>Created with Sketch.</desc>
    <g id="Desktop-HD" stroke="none" stroke-width="1" fill="none" fill-rule="evenodd">
        <g id="tram" transform="translate(20.000000, 948.000000)" fill-rule="nonzero">
            <rect id="Rectangle" fill="#767476" transform="translate(118.847083, 25.152188) scale(-1, 1) rotate(54.000000) translate(-118.847083, -25.152188) " x="88.8470831" y="23.6521877" width="60" height="3"></rect>
            <rect id="Rectangle" fill="#CFC334" x="160" y="22" width="78" height="32" rx="9"></rect>
            <rect id="Rectangle" fill="#CFC334" x="0" y="22" width="78" height="32" rx="9"></rect>
            <rect id="Rectangle" fill="#CFC334" x="80" y="22" width="78" height="32" rx="9"></rect>
            <g id="Group-13" transform="translate(5.000000, 33.000000)" fill="#95AFCE" stroke="#726C6C">
                <rect id="Rectangle" x="0.5" y="0.5" width="4.54917279" height="5.84444444" rx="2"></rect>
                <rect id="Rectangle" x="8.51547181" y="0.5" width="4.54917279" height="5.84444444" rx="2"></rect>
                <rect id="Rectangle" x="16.5309436" y="0.5" width="4.54917279" height="5.84444444" rx="2"></rect>
                <rect id="Rectangle" x="24.5464154" y="0.5" width="4.54917279" height="5.84444444" rx="2"></rect>
                <rect id="Rectangle" x="32.5618873" y="0.5" width="4.54917279" height="5.84444444" rx="2"></rect>
                <rect id="Rectangle" x="40.5773591" y="0.5" width="4.54917279" height="5.84444444" rx="2"></rect>
                <rect id="Rectangle" x="48.5928309" y="0.5" width="4.54917279" height="5.84444444" rx="2"></rect>
                <rect id="Rectangle" x="56.6083027" y="0.5" width="4.54917279" height="5.84444444" rx="2"></rect>
                <rect id="Rectangle" x="64.6237745" y="0.5" width="4.54917279" height="5.84444444" rx="2"></rect>
            </g>
            <g id="Group-13" transform="translate(84.000000, 33.000000)" fill="#95AFCE" stroke="#726C6C">
                <rect id="Rectangle" x="0.5" y="0.5" width="4.54917279" height="5.84444444" rx="2"></rect>
                <rect id="Rectangle" x="8.51547181" y="0.5" width="4.54917279" height="5.84444444" rx="2"></rect>
                <rect id="Rectangle" x="16.5309436" y="0.5" width="4.54917279" height="5.84444444" rx="2"></rect>
                <rect id="Rectangle" x="24.5464154" y="0.5" width="4.54917279" height="5.84444444" rx="2"></rect>
                <rect id="Rectangle" x="32.5618873" y="0.5" width="4.54917279" height="5.84444444" rx="2"></rect>
                <rect id="Rectangle" x="40.5773591" y="0.5" width="4.54917279" height="5.84444444" rx="2"></rect>
                <rect id="Rectangle" x="48.5928309" y="0.5" width="4.54917279" height="5.84444444" rx="2"></rect>
                <rect id="Rectangle" x="56.6083027" y="0.5" width="4.54917279" height="5.84444444" rx="2"></rect>
                <rect id="Rectangle" x="64.6237745" y="0.5" width="4.54917279" height="5.84444444" rx="2"></rect>
            </g>
            <g id="Group-13" transform="translate(164.000000, 33.000000)" fill="#95AFCE" stroke="#726C6C">
                <rect id="Rectangle" x="0.5" y="0.5" width="4.54917279" height="5.84444444" rx="2"></rect>
                <rect id="Rectangle" x="8.51547181" y="0.5" width="4.54917279" height="5.84444444" rx="2"></rect>
                <rect id="Rectangle" x="16.5309436" y="0.5" width="4.54917279" height="5.84444444" rx="2"></rect>
                <rect id="Rectangle" x="24.5464154" y="0.5" width="4.54917279" height="5.84444444" rx="2"></rect>
                <rect id="Rectangle" x="32.5618873" y="0.5" width="4.54917279" height="5.84444444" rx="2"></rect>
                <rect id="Rectangle" x="40.5773591" y="0.5" width="4.54917279" height="5.84444444" rx="2"></rect>
                <rect id="Rectangle" x="48.5928309" y="0.5" width="4.54917279" height="5.84444444" rx="2"></rect>
                <rect id="Rectangle" x="56.6083027" y="0.5" width="4.54917279" height="5.84444444" rx="2"></rect>
                <rect id="Rectangle" x="64.6237745" y="0.5" width="4.54917279" height="5.84444444" rx="2"></rect>
            </g>
        </g>
    </g>
</svg>